<svg width="19" height="19" viewBox="0 0 19 19" fill="none" xmlns="http://www.w3.org/2000/svg">
<path d="M13.3437 9.12496H10.375V6.15622C10.375 6.07028 10.3046 5.99997 10.2187 5.99997H9.28121C9.19527 5.99997 9.12496 6.07028 9.12496 6.15622V9.12496H6.15622C6.07028 9.12496 5.99997 9.19528 5.99997 9.28121V10.2187C5.99997 10.3046 6.07028 10.375 6.15622 10.375H9.12496V13.3437C9.12496 13.4296 9.19527 13.5 9.28121 13.5H10.2187C10.3046 13.5 10.375 13.4296 10.375 13.3437V10.375H13.3437C13.4296 10.375 13.4999 10.3046 13.4999 10.2187V9.28121C13.4999 9.19528 13.4296 9.12496 13.3437 9.12496Z" fill="black"/>
<path d="M9.49997 0C4.25378 0 0 4.25378 0 9.49997C0 14.7462 4.25378 18.9999 9.49997 18.9999C14.7462 18.9999 18.9999 14.7462 18.9999 9.49997C18.9999 4.25378 14.7462 0 9.49997 0ZM9.49997 17.3883C5.1444 17.3883 1.6116 13.8555 1.6116 9.49997C1.6116 5.1444 5.1444 1.6116 9.49997 1.6116C13.8555 1.6116 17.3883 5.1444 17.3883 9.49997C17.3883 13.8555 13.8555 17.3883 9.49997 17.3883Z" fill="black"/>
</svg>
