<svg width="36" height="36" viewBox="0 0 36 36" fill="none" xmlns="http://www.w3.org/2000/svg">
<path d="M27.3973 6.91165C24.0856 3.59993 18.6926 3.59993 15.3844 6.91165L6.20863 16.0804C6.14886 16.1402 6.11722 16.221 6.11722 16.3054C6.11722 16.3898 6.14886 16.4706 6.20863 16.5304L7.50589 17.8277C7.56519 17.8867 7.64546 17.9198 7.72913 17.9198C7.81281 17.9198 7.89308 17.8867 7.95238 17.8277L17.1282 8.65891C18.2672 7.51985 19.7825 6.89407 21.3926 6.89407C23.0028 6.89407 24.518 7.51985 25.6535 8.65891C26.7926 9.79797 27.4184 11.3132 27.4184 12.9198C27.4184 14.53 26.7926 16.0417 25.6535 17.1808L16.302 26.5288L14.7868 28.0441C13.37 29.4609 11.0672 29.4609 9.65042 28.0441C8.96488 27.3585 8.5887 26.448 8.5887 25.4777C8.5887 24.5073 8.96488 23.5968 9.65042 22.9113L18.9282 13.637C19.1637 13.405 19.4731 13.2749 19.8035 13.2749H19.8071C20.1375 13.2749 20.4434 13.405 20.6754 13.637C20.911 13.8726 21.0375 14.182 21.0375 14.5124C21.0375 14.8394 20.9075 15.1488 20.6754 15.3808L13.0922 22.957C13.0325 23.0167 13.0008 23.0976 13.0008 23.182C13.0008 23.2663 13.0325 23.3472 13.0922 23.407L14.3895 24.7042C14.4488 24.7633 14.5291 24.7964 14.6127 24.7964C14.6964 24.7964 14.7767 24.7633 14.836 24.7042L22.4157 17.1245C23.1153 16.4249 23.4985 15.4968 23.4985 14.5089C23.4985 13.521 23.1117 12.5894 22.4157 11.8933C20.9707 10.4484 18.6223 10.4519 17.1774 11.8933L16.2774 12.7968L7.90316 21.1675C7.33479 21.7325 6.88425 22.4048 6.57768 23.1453C6.27111 23.8858 6.11459 24.6797 6.11722 25.4812C6.11722 27.1089 6.75355 28.6382 7.90316 29.7878C9.09495 30.9761 10.6559 31.5702 12.2168 31.5702C13.7778 31.5702 15.3387 30.9761 16.527 29.7878L27.3973 18.9245C28.9969 17.3214 29.8828 15.1874 29.8828 12.9198C29.8864 10.6488 29.0004 8.51477 27.3973 6.91165Z" fill="black"/>
</svg>
