<svg width="19" height="19" viewBox="0 0 19 19" fill="none" xmlns="http://www.w3.org/2000/svg">
<path d="M13.3437 9.12499H10.375V6.15624C10.375 6.0703 10.3047 5.99999 10.2187 5.99999H9.28124C9.1953 5.99999 9.12499 6.0703 9.12499 6.15624V9.12499H6.15624C6.0703 9.12499 5.99999 9.1953 5.99999 9.28124V10.2187C5.99999 10.3047 6.0703 10.375 6.15624 10.375H9.12499V13.3437C9.12499 13.4297 9.1953 13.5 9.28124 13.5H10.2187C10.3047 13.5 10.375 13.4297 10.375 13.3437V10.375H13.3437C13.4297 10.375 13.5 10.3047 13.5 10.2187V9.28124C13.5 9.1953 13.4297 9.12499 13.3437 9.12499Z" fill="white"/>
<path d="M9.5 0C4.2538 0 0 4.2538 0 9.5C0 14.7462 4.2538 19 9.5 19C14.7462 19 19 14.7462 19 9.5C19 4.2538 14.7462 0 9.5 0ZM9.5 17.3884C5.14442 17.3884 1.61161 13.8556 1.61161 9.5C1.61161 5.14442 5.14442 1.61161 9.5 1.61161C13.8556 1.61161 17.3884 5.14442 17.3884 9.5C17.3884 13.8556 13.8556 17.3884 9.5 17.3884Z" fill="white"/>
</svg>
