<svg width="33" height="28" viewBox="0 0 33 28" fill="none" xmlns="http://www.w3.org/2000/svg">
<g filter="url(#filter0_i_643_465)">
<path fill-rule="evenodd" clip-rule="evenodd" d="M6.11108 26.0672V5.39576C6.11108 4.58355 6.47593 3.80461 7.12536 3.2303C7.77479 2.65598 8.65561 2.33333 9.57405 2.33333H23.4259C24.3443 2.33333 25.2252 2.65598 25.8746 3.2303C26.524 3.80461 26.8889 4.58355 26.8889 5.39576V26.0672C26.889 26.2001 26.8499 26.3308 26.7756 26.4464C26.7012 26.5619 26.5941 26.6583 26.4648 26.7262C26.3355 26.794 26.1885 26.8309 26.0382 26.8332C25.8879 26.8355 25.7395 26.8032 25.6076 26.7394L16.5 22.3448L7.39238 26.7394C7.26049 26.8032 7.11209 26.8355 6.96177 26.8332C6.81145 26.8309 6.66441 26.794 6.53511 26.7262C6.40581 26.6583 6.29872 26.5619 6.22437 26.4464C6.15002 26.3308 6.11097 26.2001 6.11108 26.0672ZM17.3657 9.2238C17.3657 9.02075 17.2745 8.82601 17.1121 8.68243C16.9498 8.53885 16.7296 8.45819 16.5 8.45819C16.2704 8.45819 16.0502 8.53885 15.8878 8.68243C15.7254 8.82601 15.6342 9.02075 15.6342 9.2238V11.5206H13.037C12.8074 11.5206 12.5872 11.6013 12.4248 11.7449C12.2625 11.8884 12.1713 12.0832 12.1713 12.2862C12.1713 12.4893 12.2625 12.684 12.4248 12.8276C12.5872 12.9712 12.8074 13.0518 13.037 13.0518H15.6342V15.3487C15.6342 15.5517 15.7254 15.7464 15.8878 15.89C16.0502 16.0336 16.2704 16.1143 16.5 16.1143C16.7296 16.1143 16.9498 16.0336 17.1121 15.89C17.2745 15.7464 17.3657 15.5517 17.3657 15.3487V13.0518H19.9629C20.1925 13.0518 20.4128 12.9712 20.5751 12.8276C20.7375 12.684 20.8287 12.4893 20.8287 12.2862C20.8287 12.0832 20.7375 11.8884 20.5751 11.7449C20.4128 11.6013 20.1925 11.5206 19.9629 11.5206H17.3657V9.2238Z" fill="#F8EFEF"/>
</g>
<defs>
<filter id="filter0_i_643_465" x="0" y="0" width="33" height="32" filterUnits="userSpaceOnUse" color-interpolation-filters="sRGB">
<feFlood flood-opacity="0" result="BackgroundImageFix"/>
<feBlend mode="normal" in="SourceGraphic" in2="BackgroundImageFix" result="shape"/>
<feColorMatrix in="SourceAlpha" type="matrix" values="0 0 0 0 0 0 0 0 0 0 0 0 0 0 0 0 0 0 127 0" result="hardAlpha"/>
<feOffset dy="4"/>
<feGaussianBlur stdDeviation="2"/>
<feComposite in2="hardAlpha" operator="arithmetic" k2="-1" k3="1"/>
<feColorMatrix type="matrix" values="0 0 0 0 0 0 0 0 0 0 0 0 0 0 0 0 0 0 0.25 0"/>
<feBlend mode="normal" in2="shape" result="effect1_innerShadow_643_465"/>
</filter>
</defs>
</svg>
